<?xml version="1.0" encoding="UTF-8" standalone="no"?>
<svg
   clip-rule="evenodd"
   fill-rule="evenodd"
   stroke-linejoin="round"
   stroke-miterlimit="1.41421"
   viewBox="0 0 512 512"
   version="1.1"
   id="svg6"
   sodipodi:docname="miro_collab_logo_1a1.svg"
   xml:space="preserve"
   width="512"
   height="512"
   inkscape:export-filename="miro_collab_logo_1a1.png"
   inkscape:export-xdpi="400"
   inkscape:export-ydpi="400"
   inkscape:version="1.4 (86a8ad7, 2024-10-11)"
   xmlns:inkscape="http://www.inkscape.org/namespaces/inkscape"
   xmlns:sodipodi="http://sodipodi.sourceforge.net/DTD/sodipodi-0.dtd"
   xmlns:xlink="http://www.w3.org/1999/xlink"
   xmlns="http://www.w3.org/2000/svg"
   xmlns:svg="http://www.w3.org/2000/svg"><defs
     id="defs6"><radialGradient
       cx="20.477386"
       cy="26.381811"
       fx="20.477386"
       fy="26.381811"
       r="31.845222"
       gradientTransform="scale(0.90971765,1.0992422)"
       id="a"
       gradientUnits="userSpaceOnUse"><stop
         stop-color="#376DF9"
         offset="0%"
         id="stop1" /><stop
         stop-color="#D262B4"
         offset="46.208%"
         id="stop2" /><stop
         stop-color="#FF8D74"
         offset="77.058%"
         id="stop3" /><stop
         stop-color="#FFD4CA"
         offset="100%"
         id="stop4" /></radialGradient><radialGradient
       cx="11.683449"
       cy="2.7291529"
       fx="11.683449"
       fy="2.7291529"
       r="31.845222"
       gradientTransform="scale(0.90971765,1.0992422)"
       id="c"
       gradientUnits="userSpaceOnUse"><stop
         stop-color="#376DF9"
         offset="0%"
         id="stop5" /><stop
         stop-color="#D262B4"
         offset="46.208%"
         id="stop6" /><stop
         stop-color="#FF8D74"
         offset="77.058%"
         id="stop7" /><stop
         stop-color="#FFD4CA"
         offset="100%"
         id="stop8" /></radialGradient><path
       d="M 20,29 C 28,22.085 32,16.418 32,12 32,5.373 26.627,0 20,0 13.373,0 8,5.373 8,12 c 0,4.418 4,10.085 12,17 z"
       id="b" /><path
       d="M 12,32 C 20,25.085 24,19.418 24,15 24,8.373 18.627,3 12,3 5.373,3 0,8.373 0,15 0,19.418 4,25.085 12,32 Z"
       id="d" /></defs><sodipodi:namedview
     id="namedview6"
     pagecolor="#ffffff"
     bordercolor="#000000"
     borderopacity="0.24705882"
     inkscape:showpageshadow="2"
     inkscape:pageopacity="0.0"
     inkscape:pagecheckerboard="0"
     inkscape:deskcolor="#d1d1d1"
     showgrid="true"
     inkscape:zoom="1.5097656"
     inkscape:cx="254.6753"
     inkscape:cy="255.33765"
     inkscape:window-width="1920"
     inkscape:window-height="991"
     inkscape:window-x="-9"
     inkscape:window-y="-9"
     inkscape:window-maximized="1"
     inkscape:current-layer="svg6"><inkscape:grid
       id="grid6"
       units="px"
       originx="0"
       originy="0"
       spacingx="1"
       spacingy="1"
       empcolor="#0099e5"
       empopacity="0.30196078"
       color="#0099e5"
       opacity="0.14901961"
       empspacing="5"
       enabled="true"
       visible="true" /><inkscape:page
       x="0"
       y="0"
       width="512"
       height="512"
       id="page2"
       margin="0"
       bleed="0" /></sodipodi:namedview><g
     id="g1"
     transform="translate(-12.656249)"><g
       id="g10"
       transform="matrix(2.0833333,0,0,2.0833333,310,181)"><path
         d="m 49.5,36 8.53,9.75 11.47,7.33 2,-17.02 -2,-16.64 -11.69,6.44 z"
         fill="#00832d"
         id="path1" /><path
         d="M 0,51.5 V 66 c 0,3.315 2.685,6 6,6 h 14.5 l 3,-10.96 -3,-9.54 -9.95,-3 z"
         fill="#0066da"
         id="path2" /><path
         d="M 20.5,0 0,20.5 l 10.55,3 9.95,-3 2.95,-9.41 z"
         fill="#e94235"
         id="path3" /><path
         d="m 0,20.5 h 20.5 v 31 H 0 Z"
         fill="#2684fc"
         id="path4" /><path
         d="M 82.6,8.68 69.5,19.42 v 33.66 l 13.16,10.79 c 1.97,1.54 4.85,0.135 4.85,-2.37 V 11 C 87.51,8.465 84.565,7.075 82.6,8.68 Z M 49.5,36 v 15.5 h -29 V 72 h 43 c 3.315,0 6,-2.685 6,-6 V 53.08 Z"
         fill="#00ac47"
         id="path5" /><path
         d="m 63.5,0 h -43 v 20.5 h 29 V 36 l 20,-16.57 V 6 c 0,-3.315 -2.685,-6 -6,-6 z"
         fill="#ffba00"
         id="path6" /></g><g
       id="g11"
       transform="matrix(4.6875,0,0,4.6875,45,181)"><use
         fill="url(#a)"
         opacity="0.88"
         xlink:href="#b"
         id="use8"
         style="fill:url(#a)" /><use
         fill="url(#c)"
         opacity="0.48"
         transform="matrix(1,0,0,-1,0,35)"
         xlink:href="#d"
         id="use9"
         style="fill:url(#c)" /></g><text
       xml:space="preserve"
       style="font-weight:900;font-size:100.99px;font-family:Arial;-inkscape-font-specification:'Arial Heavy';text-align:start;writing-mode:lr-tb;direction:ltr;text-anchor:start;fill:#000000;stroke-width:6.3119"
       x="221.05508"
       y="284.84723"
       id="text6"><tspan
         id="tspan6"
         x="221.05508"
         y="284.84723"
         style="font-style:normal;font-variant:normal;font-weight:normal;font-stretch:normal;font-family:'Courier New';-inkscape-font-specification:'Courier New';stroke-width:6.3119"
         sodipodi:role="line">X</tspan></text></g></svg>
